<svg xmlns="http://www.w3.org/2000/svg" width="38.075" height="42.056" viewBox="0 0 38.075 42.056">
  <path id="share" d="M32.124,2.627a3.77,3.77,0,0,0-3.569,3.942,3.77,3.77,0,0,0,3.569,3.942,3.77,3.77,0,0,0,3.569-3.942A3.77,3.77,0,0,0,32.124,2.627ZM26.175,6.569A6.426,6.426,0,0,1,31.075.1,5.892,5.892,0,0,1,37.7,4.287a6.915,6.915,0,0,1-2.561,7.944,5.564,5.564,0,0,1-7.532-1.383l-15.986,8.2a7.223,7.223,0,0,1,0,3.953L27.61,31.2a5.562,5.562,0,0,1,7.915-1.1,7,7,0,0,1,1.793,8.585,5.689,5.689,0,0,1-7.554,2.835A6.8,6.8,0,0,1,26.449,33.5L10.463,25.3a5.59,5.59,0,0,1-6.58,1.883A6.577,6.577,0,0,1,0,21.023a6.577,6.577,0,0,1,3.884-6.161,5.59,5.59,0,0,1,6.58,1.883l15.986-8.2a7.2,7.2,0,0,1-.274-1.976ZM5.949,17.081a3.77,3.77,0,0,0-3.569,3.942,3.77,3.77,0,0,0,3.569,3.942,3.77,3.77,0,0,0,3.569-3.942A3.77,3.77,0,0,0,5.949,17.081ZM32.124,31.536a3.77,3.77,0,0,0-3.569,3.942,3.77,3.77,0,0,0,3.569,3.942,3.77,3.77,0,0,0,3.569-3.942A3.77,3.77,0,0,0,32.124,31.536Z" transform="translate(0.001 0.002)"/>
</svg>
